# xmcd CD database file
#
# Track frame offsets:
#	150
#	6274
#	15795
#	36496
#	58591
#	77824
#	90272
#	110526
#	127590
#	145713
#	158735
#	185781
#	205313
#	222498
#
# Disc length: 3157 seconds
#
# Revision: 1
# Processed by: cddbd v1.5.2PL0 Copyright (c) Steve Scherf et al.
# Submitted via: CDex 1.51
#
DISCID=b30c530e
DTITLE=Papa Binne - 45 Jahre Papa Binnes Jazz Band
DYEAR=2004
DGENRE=Jazz
TTITLE0=Team Song
TTITLE1=Die Olsenbande
TTITLE2=I love my Baby
TTITLE3=Blues for Soprano
TTITLE4=Mahagony Hall Blues Song
TTITLE5=Ain´t she sweet
TTITLE6=Wabash Blues
TTITLE7=Die bess´ren ält´ren Herrn
TTITLE8=Dinah
TTITLE9=Darktown Strutters Ball
TTITLE10=I want a little Girl
TTITLE11=Sent for you Yesterday
TTITLE12=Die Fidschi-Inseln
TTITLE13=Sout Rampart Street Parade
EXTD=YEAR: 2004
EXTT0=
EXTT1=
EXTT2=
EXTT3=
EXTT4=
EXTT5=
EXTT6=
EXTT7=
EXTT8=
EXTT9=
EXTT10=
EXTT11=
EXTT12=
EXTT13=
PLAYORDER=
